<?xml version="1.0" encoding="UTF-8"?>
<svg id="Layer_1" data-name="Layer 1" xmlns="http://www.w3.org/2000/svg" viewBox="0 0 374.42 375">
  <defs>
    <style>
      .cls-1 {
        fill: #fff;
      }
    </style>
  </defs>
  <rect class="cls-1" width=".75" height="375"/>
  <path class="cls-1" d="M200.6,375h-23.95C41.29,364.57-42.29,218.73,24.57,97c71.02-129.3,257.82-127.89,327.62,1.99,63.87,118.85-17.13,265.71-150.4,275.32-.58.04-1.05.68-1.19.69ZM160.18,162.75h-29.94v51h28.82l1.12,1.12v157.12c14.52,1.87,29.14,2.78,43.78,1.49,8.39-.74,16.76-2.6,25.08-3.74v-156h45.66v-51h-45.66v-22.12c0-1.46,2.28-8.65,2.98-10.52,8.42-22.44,33.31-23.78,53.16-16.86l2.3-53.54c-36.28-10.46-78.58-6.18-105.22,22.78-19.38,21.07-23.12,52.66-22.07,80.26Z"/>
</svg>