<?xml version="1.0" encoding="UTF-8"?>
<svg id="Layer_1" data-name="Layer 1" xmlns="http://www.w3.org/2000/svg" viewBox="0 0 304.71 318.51">
  <defs>
    <style>
      .cls-2 {
        fill: #4d4d4d;
      }
    </style>
  </defs>
  <path class="cls-2" d="M14.1.22l274.53-.22c9.65.83,14.54,6.74,15.34,16.12.98,11.41.98,32.89,0,44.3-.4,4.68-1.92,8.05-4.97,11.52l-101.22,86.83-.1,114.65c-.38,4.44-1.72,8.4-5.26,11.23-20.09,9.34-42.88,25.01-63.43,32.44-10.59,3.83-19.71-.13-21.82-11.53l-2.45-146.79L5,71.2c-2.57-3.21-3.86-6.66-4.22-10.78C-.13,49.73-.46,23.58,1,13.35,1.97,6.6,7.39,1.19,14.1.22ZM274.01,53.65v-22.5l-1.12-1.12H31.87l-1.12,1.12v22.5l95.82,83.99c4.87,4.67,7.63,6.98,8.25,14.23,2.02,23.62.31,51.02.69,75.06.25,15.64-.29,32.4.74,48,.05.83.42,4.14,1.19,4.11l30.16-15.52.09-112.41,3.52-9.15,102.8-88.32Z"/>
 </svg>