<?xml version="1.0" encoding="UTF-8"?>
<svg id="Layer_1" data-name="Layer 1" xmlns="http://www.w3.org/2000/svg" viewBox="0 0 27.53 19.62">
  <defs>
    <style>
      .cls-1 {
        stroke: #ef4924;
        stroke-miterlimit: 10;
        stroke-width: .15px;
      }

      .cls-1, .cls-2 {
        fill: #ef4924;
      }
    </style>
  </defs>
  <path class="cls-2" d="M.07,15.2v-.48l.67-.18c.29-.08.49-.22.61-.44.11-.21.17-.47.17-.78V2.19c-.14-.29-.26-.51-.36-.66-.1-.15-.2-.27-.31-.38-.11-.11-.25-.23-.44-.37l-.41-.3V0h3.93l7.64,10.44V1.91c0-.31-.05-.58-.15-.81s-.3-.38-.61-.46l-.69-.16V0h3.43v.48l-.58.16c-.29.09-.47.25-.54.47s-.1.49-.1.79v13.39h-1.29L2.28,3.24v10.05c0,.32.05.59.14.8.09.21.28.36.58.44l.62.18v.48H.07Z"/>
  <path class="cls-2" d="M20.67,15.59c-1.15,0-2.17-.21-3.05-.62-.88-.41-1.57-1.07-2.07-1.97-.5-.9-.75-2.08-.75-3.55v-5.08c0-.87,0-1.76-.02-2.65,0-.6-.28-.97-.85-1.13l-.51-.12v-.48h6.21v.48l-.64.14c-.58.14-.87.52-.87,1.15-.02.86-.02,1.72-.02,2.59v5.53c0,1.49.3,2.56.91,3.22.61.66,1.47.99,2.59.99,1.18,0,2.1-.36,2.77-1.07.67-.71,1-1.78,1-3.19V1.84c0-.31-.06-.58-.18-.81-.12-.23-.34-.38-.64-.44l-.55-.12v-.48h3.54v.48l-.64.14c-.29.06-.49.2-.6.41-.11.21-.16.48-.16.78v7.89c0,1.9-.5,3.36-1.5,4.37s-2.32,1.52-3.96,1.52Z"/>
  <g>
    <path class="cls-2" d="M1.8,17.17h.09v2.44L.12,17.43v2.14H.03v-2.44l1.77,2.17v-2.13Z"/>
    <path class="cls-2" d="M2.46,19.38c-.15-.15-.22-.33-.22-.53s.07-.38.22-.53.33-.22.54-.22.39.07.54.22c.15.15.22.32.22.53s-.07.38-.22.53-.32.23-.53.23h-.03c-.21,0-.38-.08-.53-.23ZM3.66,18.85c0-.18-.06-.34-.19-.47-.13-.13-.28-.2-.46-.2s-.33.07-.47.2c-.13.13-.2.29-.2.47s.07.33.2.47c.13.13.29.2.47.2s.33-.07.46-.2c.13-.13.19-.29.19-.47Z"/>
    <path class="cls-2" d="M4.6,18.18c-.11,0-.21.04-.3.13s-.13.18-.13.3v.96h-.1v-1.44h.1v.21c.04-.07.1-.13.18-.18s.17-.07.27-.07.2.03.29.1v.13c-.09-.09-.2-.14-.31-.14Z"/>
    <path class="cls-2" d="M5.71,18.18c-.11,0-.21.04-.3.13s-.13.18-.13.3v.96h-.1v-1.44h.1v.21c.04-.07.1-.13.18-.18s.17-.07.27-.07.2.03.29.1v.13c-.09-.09-.2-.14-.31-.14Z"/>
    <path class="cls-2" d="M6.84,19.51v.09c-.15,0-.28-.05-.39-.15-.11-.1-.16-.23-.16-.39v-1.89h.1v1.89c0,.13.04.24.13.32.09.09.19.13.32.13Z"/>
    <path class="cls-2" d="M8.41,18.13v1.44h-.1v-.36c-.06.12-.15.22-.27.29-.12.07-.25.11-.38.11-.21,0-.39-.07-.54-.22s-.22-.33-.22-.53.07-.38.22-.53.33-.22.54-.22c.14,0,.27.04.39.11.12.07.21.17.26.29v-.36h.1ZM6.99,18.85c0,.18.07.33.2.47.13.13.29.2.47.2s.33-.07.46-.2c.13-.13.19-.29.19-.47s-.06-.34-.19-.47c-.13-.13-.28-.2-.46-.2s-.33.07-.47.2c-.13.13-.2.29-.2.47Z"/>
    <path class="cls-2" d="M8.9,19.57h-.1v-1.44h.1v.29c.11-.22.29-.33.56-.33.18,0,.33.06.45.19.12.12.18.27.18.45v.84h-.1v-.84c0-.15-.05-.28-.16-.38s-.23-.16-.38-.16-.28.05-.39.16-.17.24-.17.38v.84Z"/>
    <path class="cls-2" d="M11.91,17.17v2.4h-.1v-.35c-.06.12-.16.21-.28.28s-.25.1-.37.1c-.21,0-.39-.07-.54-.22-.15-.15-.22-.33-.22-.53s.07-.38.22-.53c.15-.15.33-.22.54-.22.13,0,.26.04.38.11s.21.17.27.28v-1.31h.1ZM10.49,18.85c0,.18.06.34.19.47.13.13.28.2.46.2s.34-.07.47-.2c.13-.13.2-.29.2-.47s-.07-.34-.2-.47c-.13-.13-.29-.2-.47-.2s-.33.07-.46.2c-.13.13-.19.29-.19.47Z"/>
    <path class="cls-2" d="M12.6,18.18c-.06,0-.1.02-.15.05s-.06.08-.06.13.02.1.07.15c.05.04.11.09.17.12.07.04.14.08.2.12.07.04.13.1.17.16.05.07.07.14.07.23,0,.13-.05.23-.14.32-.09.09-.21.13-.34.13-.09,0-.17-.02-.24-.06-.07-.04-.13-.09-.16-.15v-.15c.08.18.21.27.39.27.11,0,.2-.03.28-.1s.11-.14.11-.23-.02-.16-.07-.21-.11-.11-.17-.15c-.07-.04-.14-.08-.2-.12-.07-.04-.12-.09-.17-.14-.05-.06-.07-.12-.07-.2s.03-.14.09-.19c.06-.05.14-.08.24-.08s.18.04.25.11v.13c-.07-.1-.15-.15-.26-.15Z"/>
    <path class="cls-2" d="M15.29,19.62h-.03c-.2,0-.36-.07-.5-.21-.14-.14-.2-.31-.2-.52v-1.72h.1v1.72c0,.18.06.33.18.45s.26.18.44.18.32-.06.43-.18c.12-.12.17-.27.17-.45v-1.72h.11v1.72c0,.21-.07.38-.2.52-.13.14-.3.21-.49.21Z"/>
    <path class="cls-2" d="M16.52,19.57h-.1v-1.44h.1v.29c.11-.22.29-.33.56-.33.18,0,.33.06.45.19.12.12.18.27.18.45v.84h-.1v-.84c0-.15-.05-.28-.16-.38s-.23-.16-.38-.16-.28.05-.39.16c-.11.11-.17.24-.17.38v.84Z"/>
    <path class="cls-2" d="M18.19,17.78c-.06,0-.09-.03-.09-.09s.03-.09.09-.09.09.03.09.09-.03.09-.09.09ZM18.24,18.13v1.44h-.1v-1.44h.1Z"/>
    <path class="cls-2" d="M19.88,18.13h.09l-.71,1.48-.71-1.48h.11l.61,1.26.61-1.26Z"/>
    <path class="cls-2" d="M20.96,19.61h-.03c-.2,0-.38-.08-.53-.23s-.23-.33-.23-.53.08-.38.22-.53c.15-.15.33-.22.55-.22s.41.09.57.26l-1,.99c.14.11.27.17.4.17s.24-.03.34-.09.19-.14.25-.24v.16c-.15.17-.33.25-.55.25ZM20.93,18.19c-.17,0-.32.07-.45.2s-.2.28-.2.45.06.32.17.45l.93-.92c-.13-.12-.28-.17-.45-.17Z"/>
    <path class="cls-2" d="M22.36,18.18c-.11,0-.21.04-.3.13-.09.08-.13.18-.13.3v.96h-.1v-1.44h.1v.21c.04-.07.1-.13.18-.18s.17-.07.27-.07.2.03.29.1v.13c-.09-.09-.2-.14-.31-.14Z"/>
    <path class="cls-2" d="M23.26,18.18c-.06,0-.1.02-.15.05s-.06.08-.06.13.02.1.07.15.11.09.17.12.13.08.2.12c.07.04.13.1.17.16s.07.14.07.23c0,.13-.05.23-.14.32-.1.09-.21.13-.34.13-.08,0-.16-.02-.24-.06-.07-.04-.13-.09-.16-.15v-.15c.08.18.21.27.39.27.11,0,.2-.03.28-.1.08-.07.11-.14.11-.23s-.02-.16-.07-.21-.11-.11-.17-.15c-.07-.04-.14-.08-.2-.12-.07-.04-.12-.09-.17-.14s-.07-.12-.07-.2.03-.14.09-.19c.06-.05.14-.08.24-.08s.18.04.25.11v.13c-.07-.1-.15-.15-.26-.15Z"/>
    <path class="cls-2" d="M24.14,17.78c-.06,0-.09-.03-.09-.09s.03-.09.09-.09.09.03.09.09-.03.09-.09.09ZM24.19,18.13v1.44h-.1v-1.44h.1Z"/>
    <path class="cls-2" d="M25.13,19.5v.09c-.15,0-.28-.05-.39-.15-.11-.1-.16-.23-.16-.39v-1.5h.1v.58h.44v.09h-.44v.83c0,.13.04.24.13.32.09.08.19.13.32.13Z"/>
    <path class="cls-2" d="M26.1,19.61h-.03c-.2,0-.38-.08-.53-.23s-.23-.33-.23-.53.08-.38.22-.53c.15-.15.33-.22.55-.22s.41.09.57.26l-1,.99c.14.11.27.17.4.17s.24-.03.34-.09.19-.14.25-.24v.16c-.15.17-.33.25-.55.25ZM26.07,18.19c-.17,0-.32.07-.45.2s-.2.28-.2.45.06.32.17.45l.93-.92c-.13-.12-.28-.17-.45-.17Z"/>
    <path class="cls-2" d="M27.48,19.5v.09c-.15,0-.28-.05-.39-.15-.11-.1-.16-.23-.16-.39v-1.5h.1v.58h.44v.09h-.44v.83c0,.13.04.24.13.32.09.08.19.13.32.13Z"/>
  </g>
  <line class="cls-1" x1="0" y1="16.37" x2="27.53" y2="16.37"/>
</svg>