<?xml version="1.0" encoding="UTF-8"?>
<svg id="Layer_1" data-name="Layer 1" xmlns="http://www.w3.org/2000/svg" viewBox="0 0 375 375">
  <defs>
    <style>
      .cls-1 {
        fill: #fff;
      }
    </style>
  </defs>
  <path class="cls-1" d="M.75,0l.37,172.51C6.99,88.1,73.3,16.28,156.28,2.47c6.24-1.04,12.71-1.03,18.87-2.47h25.45c5.92,1.35,12.12,1.49,18.12,2.47,79,12.92,142.06,77,153.91,156.28l2.37,19.75v20.25l-2.46,19.66c-12.49,76.44-73.35,138.96-149.31,153.39l-22.63,3.2h-25.45l-22.61-3.22C70.43,356.66,5.87,283.96,1.12,200.24l-.37,174.76h-.75V0h.75ZM112.08,94.68c-10.99,2.65-18.93,11.29-20,22.71l-.04,147.76c.91,11.57,7.74,20.64,19,23.71l153.58.66c12.91-1.47,22.49-12.08,22.84-25.12-2.7-47.14,3.48-98.12,0-144.81-.96-12.88-8.32-22.79-21.36-25.1l-154.02.18Z"/>
  <path class="cls-1" d="M131.74,177c-13.71,47.87,32.94,87.53,78.79,71.82,29.67-10.16,46.08-41.35,37.98-71.82h16.47v85.12c0,1.43-4.47,5.1-6.33,4.91H121.6c-2.35.97-7.82-4.09-7.82-5.66v-84.38h17.96Z"/>
  <path class="cls-1" d="M189.21,153.2c50.16-.99,53.55,72.91,3.56,76.32-52.92,3.61-56.66-75.28-3.56-76.32Z"/>
  <path class="cls-1" d="M234.1,115.7c5.05-.74,22.59-.85,26.65,1.41,2.22,1.23,3.94,3.71,4.23,6.26.58,4.94.59,18.35,0,23.28-.52,4.38-3.46,7.34-7.86,7.88-5.02.6-18.16.56-23.22-.02-4.66-.53-8.06-3.88-8.63-8.61s-.53-17.98.2-22.34c.83-4.92,3.95-7.17,8.62-7.86Z"/>
</svg>