<?xml version="1.0" encoding="UTF-8"?>
<svg id="Layer_1" data-name="Layer 1" xmlns="http://www.w3.org/2000/svg" viewBox="0 0 27.53 15.59">
  <defs>
    <style>
      .cls-1 {
        fill: #ef4924;
      }
    </style>
  </defs>
  <path class="cls-1" d="M.07,15.2v-.48l.67-.18c.29-.08.49-.22.61-.44.11-.21.17-.47.17-.78V2.19c-.14-.29-.26-.51-.36-.66-.1-.15-.2-.27-.31-.38-.11-.11-.25-.23-.44-.37l-.41-.3V0h3.93l7.64,10.44V1.91c0-.31-.05-.58-.15-.81s-.3-.38-.61-.46l-.69-.16V0h3.43v.48l-.58.16c-.29.09-.47.25-.54.47s-.1.49-.1.79v13.39h-1.29L2.28,3.24v10.05c0,.32.05.59.14.8.09.21.28.36.58.44l.62.18v.48H.07Z"/>
  <path class="cls-1" d="M20.67,15.59c-1.15,0-2.17-.21-3.05-.62-.88-.41-1.57-1.07-2.07-1.97-.5-.9-.75-2.08-.75-3.55v-5.08c0-.87,0-1.76-.02-2.65,0-.6-.28-.97-.85-1.13l-.51-.12v-.48h6.21v.48l-.64.14c-.58.14-.87.52-.87,1.15-.02.86-.02,1.72-.02,2.59v5.53c0,1.49.3,2.56.91,3.22.61.66,1.47.99,2.59.99,1.18,0,2.1-.36,2.77-1.07.67-.71,1-1.78,1-3.19V1.84c0-.31-.06-.58-.18-.81-.12-.23-.34-.38-.64-.44l-.55-.12v-.48h3.54v.48l-.64.14c-.29.06-.49.2-.6.41-.11.21-.16.48-.16.78v7.89c0,1.9-.5,3.36-1.5,4.37s-2.32,1.52-3.96,1.52Z"/>
</svg>